HIERARCHY
ROOT Hips
{
  OFFSET -292.659 107.548 -305.403
  CHANNELS 6 Xposition Yposition Zposition Zrotation Xrotation Yrotation
  JOINT ToSpine
  {
    OFFSET -2.69724 7.43032 -0.144315
    CHANNELS 3 Zrotation Xrotation Yrotation
    JOINT Spine
    {
      OFFSET -0.0310711 10.7595 1.96963
      CHANNELS 3 Zrotation Xrotation Yrotation
      JOINT Spine1
      {
        OFFSET 13.1342 3.43533 0.764692
        CHANNELS 3 Zrotation Xrotation Yrotation
        JOINT Neck
        {
          OFFSET 29.8703 7.82586 -0.130764
          CHANNELS 3 Zrotation Xrotation Yrotation
          JOINT Head
          {
            OFFSET 9.52751 0.295786 -0.907742
            CHANNELS 3 Zrotation Xrotation Yrotation
            End Site
            {
              OFFSET 16.4037 0.713936 2.7358
            }
          }
        }
        JOINT LeftShoulder
        {
          OFFSET 27.5574 4.95586 2.47156
          CHANNELS 3 Zrotation Xrotation Yrotation
          JOINT LeftArm
          {
            OFFSET 1.20734 -0.998971 20.1238
            CHANNELS 3 Zrotation Xrotation Yrotation
            JOINT LeftForeArm
            {
              OFFSET 26.8049 -0.0536703 -0.155908
              CHANNELS 3 Zrotation Xrotation Yrotation
              JOINT LeftHand
              {
                OFFSET 26.6817 0 0.320147
                CHANNELS 3 Zrotation Xrotation Yrotation
                End Site
                {
                  OFFSET 18.6119 0 0.382219
                }
              }
            }
          }
        }
        JOINT RightShoulder
        {
          OFFSET 27.5927 4.71444 -2.65209
          CHANNELS 3 Zrotation Xrotation Yrotation
          JOINT RightArm
          {
            OFFSET 2.83739 -1.17114 -18.7564
            CHANNELS 3 Zrotation Xrotation Yrotation
            JOINT RightForeArm
            {
              OFFSET 28.839 -0.0548439 1.22491
              CHANNELS 3 Zrotation Xrotation Yrotation
              JOINT RightHand
              {
                OFFSET 26.5114 0 -0.101894
                CHANNELS 3 Zrotation Xrotation Yrotation
                End Site
                {
                  OFFSET 18.2168 0 0
                }
              }
            }
          }
        }
      }
    }
  }
  JOINT LeftUpLeg
  {
    OFFSET -4.76168 -1.9167 -10.2353
    CHANNELS 3 Zrotation Xrotation Yrotation
    JOINT LeftLeg
    {
      OFFSET 2.55951 -42.0585 -8.02213
      CHANNELS 3 Zrotation Xrotation Yrotation
      JOINT LeftFoot
      {
        OFFSET 3.16357 -42.5282 -3.95426
        CHANNELS 3 Zrotation Xrotation Yrotation
        JOINT LeftToeBase
        {
          OFFSET 0.346054 -6.02161 12.8035
          CHANNELS 3 Zrotation Xrotation Yrotation
          End Site
          {
            OFFSET 0.134235 -1.35082 5.13018
          }
        }
      }
    }
  }
  JOINT RightUpLeg
  {
    OFFSET -4.94151 -1.41743 10.6446
    CHANNELS 3 Zrotation Xrotation Yrotation
    JOINT RightLeg
    {
      OFFSET -2.56294 -42.0364 -7.94377
      CHANNELS 3 Zrotation Xrotation Yrotation
      JOINT RightFoot
      {
        OFFSET -3.0952 -42.555 -4.02241
        CHANNELS 3 Zrotation Xrotation Yrotation
        JOINT RightToeBase
        {
          OFFSET -0.0828122 -6.13587 12.8035
          CHANNELS 3 Zrotation Xrotation Yrotation
          End Site
          {
            OFFSET -0.131328 -1.35082 5.13018
          }
        }
      }
    }
  }
}
MOTION
Frames:	18
Frame Time:	0.00833333
20.512 90.0585 -52.6192 56.6452 -44.7618 -29.5438 -70.1915 0 88.8779 116.005 77.9654 -26.1655 -5.02679 33.6645 -4.53517 -173.501 22.5651 177.039 -162.784 62.359 -177.739 0.635662 -12.3059 -34.3122 -101.99 33.2463 -50.1942 -2.19904 24.0324 -7.69278 0.420957 0.000575467 0.35866 -2.4804 8.19364 44.4127 -80.6939 -31.8077 93.2263 10.328 -4.12952 68.3498 0.58676 0.000331124 0.0646653 -11.8103 2.9243 104.004 -4.75785 48.3218 -13.8307 -49.663 -2.12987 5.76062 -6.17157 -1.39779 31.8765 -71.1203 -0.902152 90.3143 2.12939 43.1461 1.51987 1.98894 1.9103 -0.28347 5.61488 -29.6472 15.8534 
22.3576 89.9829 -51.134 56.2749 -44.5613 -29.903 -70.1915 0 88.8779 114.367 77.9815 -24.9849 -5.07663 33.4279 -4.5547 -173.659 22.5983 176.385 -162.48 62.2788 -178.326 0.533818 -12.66 -34.7411 -101.513 34.4176 -52.395 -2.45741 21.0687 -8.23124 0.420957 0.000575465 0.35866 -2.4896 8.11638 44.7956 -79.5821 -32.2091 92.9901 8.43907 -4.09679 64.5582 0.58676 0.000331125 0.0646653 -12.1943 2.66774 104.453 -5.10889 50.5518 -16.8551 -47.1704 -5.4473 3.46309 -6.25808 -1.37725 32.1377 -70.322 -1.51672 90.49 2.50722 45.8193 1.97368 3.22074 6.39075 -0.900176 4.74611 -29.2518 13.837 
24.2007 89.9121 -49.651 56.0163 -44.3682 -30.0174 -70.1915 0 88.8779 113.043 77.8642 -24.0828 -5.2567 33.0477 -4.36216 -173.85 22.5789 175.786 -162.112 62.1423 -178.931 0.417893 -13.0669 -35.1631 -100.096 36.1671 -55.1072 -2.45565 17.6916 -8.76196 0.420957 0.000575461 0.35866 -2.49446 8.05037 45.0963 -78.3742 -32.6338 92.8974 6.96062 -4.04553 60.5054 0.58676 0.000331127 0.0646653 -12.4513 2.39752 104.683 -5.63698 52.9298 -18.3041 -45.018 -8.52535 1.68802 -6.27704 -1.45167 32.4497 -69.2182 -1.83139 90.8382 3.14811 49.2129 2.27124 4.88823 10.3967 -1.72386 2.10644 -25.4365 5.94785 
26.0763 89.8351 -48.158 55.8527 -44.18 -29.9584 -70.1915 0 88.8779 111.902 77.6484 -23.3707 -5.49981 32.5473 -4.02467 -174.051 22.5243 175.212 -161.693 61.964 -179.545 0.28241 -13.5501 -35.6211 -97.8008 38.2222 -58.3833 -2.31087 13.9771 -9.31615 0.420957 0.000575455 0.35866 -2.48987 7.98878 45.2755 -77.0598 -33.0868 92.9738 5.72971 -3.95643 56.2033 0.58676 0.000331128 0.0646653 -12.6501 2.08219 104.719 -6.44933 55.4932 -18.7545 -43.0298 -11.6309 0.129546 -6.2571 -1.58231 32.8038 -67.8375 -1.83471 91.3599 3.94137 53.2185 2.56534 6.95124 14.2096 -2.73652 0.572874 -18.3928 -5.2789 
27.9715 89.7602 -46.6564 55.8685 -43.9273 -29.6922 -70.1915 0 88.8779 111.06 77.321 -23.074 -5.8288 31.8917 -3.48244 -174.214 22.4454 174.679 -161.287 61.7664 179.919 0.11832 -14.1192 -36.1151 -94.8553 40.1967 -62.1417 -2.04839 10.4357 -10.1115 0.420957 0.000575449 0.35866 -2.47966 7.93318 45.3678 -75.4993 -33.495 93.2525 4.55348 -3.69628 51.8509 0.58676 0.00033113 0.0646653 -12.9027 1.62667 104.607 -7.39369 57.9756 -18.6648 -41.3458 -14.5543 -1.24334 -6.20439 -1.7506 33.1638 -66.2243 -1.62232 91.783 4.7128 57.6689 2.59899 8.94008 17.5897 -3.73471 1.93777 -10.6758 -15.4026 
29.8169 89.706 -45.1726 56.1438 -43.5382 -29.1881 -70.1915 0 88.8779 110.59 76.8689 -23.3811 -6.25839 31.0441 -2.6799 -174.287 22.3535 174.204 -160.956 61.5731 179.544 -0.06006 -14.7118 -36.554 -91.6151 41.7591 -66.1493 -1.7141 7.57928 -11.3431 0.420957 0.000575442 0.35866 -2.47349 7.89791 45.4358 -73.5541 -33.7819 93.7647 3.27603 -3.09467 47.6536 0.58676 0.000331131 0.0646653 -13.3214 0.940806 104.378 -8.16827 60.0854 -18.5965 -40.0931 -17.0892 -2.4534 -6.12582 -1.93855 33.4935 -64.4162 -1.47911 91.893 5.48083 62.3968 1.94867 10.3145 20.3051 -4.49024 4.21936 -5.32867 -21.1286 
31.5434 89.6912 -43.7332 56.7979 -42.9315 -28.3612 -70.1915 0 88.8779 110.652 76.2088 -24.6301 -6.86142 29.8753 -1.46857 -174.254 22.2365 173.81 -160.715 61.3789 179.394 -0.232242 -15.2701 -36.8435 -88.0311 42.9178 -70.3497 -1.2579 5.46484 -13.1485 0.420957 0.000575435 0.35866 -2.48093 7.89722 45.5421 -70.9139 -33.8854 94.7632 1.84293 -1.96124 43.5681 0.58676 0.000331132 0.0646653 -13.9409 0.000220949 103.965 -8.70686 61.769 -18.4865 -39.2777 -19.1291 -3.43432 -6.02895 -2.12231 33.7491 -62.3945 -1.61694 91.5452 6.65371 67.5549 -0.315306 10.6828 22.1987 -4.86939 4.75024 -2.83431 -20.5169 
33.0893 89.6955 -42.3581 57.725 -42.1521 -27.2771 -70.1915 0 88.8779 110.97 75.3644 -26.4401 -7.54687 28.4317 0.0476045 -174.142 22.0943 173.482 -160.528 61.1768 179.406 -0.392989 -15.8087 -36.9468 -84.0087 43.7494 -74.807 -0.700996 3.85067 -15.3811 0.420957 0.000575427 0.35866 -2.51091 7.95999 45.675 -67.7481 -33.8218 96.1472 0.446787 -0.3892 39.5472 0.58676 0.000331132 0.0646653 -14.7179 -1.07474 103.322 -9.26581 63.1747 -18.0026 -38.7566 -20.8056 -4.18236 -5.90838 -2.31798 33.9614 -60.152 -1.70197 90.8827 9.83505 73.0828 -5.33834 10.3301 23.4332 -4.98731 3.70576 -1.68715 -16.0128 
34.506 89.7173 -41.029 58.6766 -41.3219 -26.1232 -70.1915 0 88.8779 111.092 74.4923 -28.0454 -8.1156 26.9478 1.56298 -173.973 21.9561 173.181 -160.37 60.987 179.471 -0.546067 -16.354 -36.9165 -80.0111 44.1314 -79.2718 -0.143304 2.79028 -17.8019 0.420957 0.000575419 0.35866 -2.55662 8.06973 45.8109 -64.6397 -33.6704 97.4107 -0.744677 1.3137 35.7752 0.58676 0.000331132 0.0646653 -15.6455 -2.16138 102.499 -9.82479 64.3033 -17.4695 -38.4494 -22.2681 -4.81351 -5.75102 -2.56703 34.2065 -57.7278 -1.45612 90.3252 18.2703 78.4116 -15.3416 9.71506 24.2592 -4.97974 2.12893 -1.41762 -10.7174 
35.8933 89.8036 -39.7145 59.4307 -40.5743 -25.0667 -70.1915 0 88.8779 110.782 73.7659 -28.89 -8.42848 25.6705 2.80073 -173.766 21.8507 172.871 -160.222 60.8301 179.482 -0.681615 -16.8673 -36.7891 -76.5548 44.0094 -83.4354 0.355338 2.32573 -20.1721 0.420957 0.000575412 0.35866 -2.60431 8.17251 45.994 -62.1564 -33.5715 98.0646 -1.66994 2.7616 32.406 0.58676 0.000331132 0.0646653 -16.7081 -3.16823 101.578 -10.2926 65.1588 -17.2781 -38.301 -23.6629 -5.4524 -5.54163 -2.9094 34.5612 -55.1606 -0.996689 90.1522 38.7669 82.7692 -36.1938 9.31568 24.9255 -4.99187 1.19592 -1.61836 -7.75508 
37.3511 90.0016 -38.3834 59.9986 -39.8794 -24.0551 -70.1915 0 88.8779 110.012 73.2369 -28.8692 -8.43686 24.6626 3.72932 -173.514 21.8218 172.506 -160.055 60.7424 179.392 -0.791679 -17.3086 -36.6005 -73.6267 43.3323 -87.3767 0.851066 2.55738 -22.3937 0.420957 0.000575406 0.35866 -2.63973 8.21446 46.2684 -59.8795 -33.5237 98.2804 -2.60489 4.29459 29.5731 0.58676 0.000331131 0.0646653 -17.8952 -4.11939 100.519 -10.6528 65.7685 -17.6311 -38.2323 -25.042 -6.11558 -5.24326 -3.42208 35.1672 -52.4655 -0.360104 90.1527 84.9479 84.7967 -80.7278 9.37844 25.3174 -5.07917 1.31024 -2.65243 -8.47462 
38.9114 90.3252 -37.0111 60.4771 -39.1876 -23.0288 -70.1915 0 88.8779 109.018 72.8151 -28.3828 -8.25416 23.8007 4.49976 -173.209 21.8418 172.119 -159.888 60.7027 179.263 -0.885 -17.7047 -36.3505 -71.1892 42.2098 -90.9824 1.47979 3.38887 -24.6106 0.420957 0.000575402 0.35866 -2.65751 8.17104 46.6796 -57.6935 -33.4892 98.219 -3.54271 5.90248 27.1517 0.58676 0.000331129 0.0646653 -19.2302 -4.96181 99.2972 -10.9099 66.1181 -18.3191 -38.2819 -26.3243 -6.7383 -4.86298 -4.05265 35.9474 -49.6197 0.233861 89.7323 131.487 82.9229 -124.347 9.60541 25.3628 -5.15583 1.7799 -4.58577 -11.0478 
40.519 90.749 -35.6199 60.8064 -38.6179 -22.1179 -70.1915 0 88.8779 108.035 72.466 -27.6987 -8.01942 23.0577 5.12332 -172.873 21.8325 171.784 -159.773 60.6449 179.159 -0.960081 -18.0649 -36.0209 -69.6179 40.9747 -93.8061 2.29417 4.56369 -26.9505 0.420957 0.000575398 0.35866 -2.66449 8.07468 47.1927 -56.6116 -33.5665 97.3897 -4.1799 6.57656 24.8633 0.58676 0.000331128 0.0646653 -20.7249 -5.58183 98.0502 -10.9966 66.1523 -19.124 -38.5862 -27.4535 -7.32873 -4.46169 -4.65437 36.6467 -46.6158 0.278072 88.9708 153.095 79.3095 -143.16 9.66637 25.3737 -5.16022 2.12558 -6.54866 -13.8371 
42.1434 91.2603 -34.2481 60.9425 -38.2957 -21.4417 -70.1915 0 88.8779 107.27 72.1571 -27.0612 -7.86751 22.4059 5.60937 -172.532 21.7163 171.578 -159.763 60.503 179.14 -0.996754 -18.3203 -35.6207 -69.1491 40.0281 -95.598 3.32161 5.82978 -29.5384 0.420957 0.000575394 0.35866 -2.66476 7.9573 47.7304 -57.6618 -33.7777 95.2889 -4.35571 5.2449 22.4413 0.58676 0.000331127 0.0646653 -22.3764 -5.95422 96.935 -10.8677 65.8202 -19.8088 -39.2803 -28.3733 -7.89355 -4.11778 -5.09429 37.0046 -43.4536 0.0105487 88.4248 162.961 75.5285 -151.756 9.23152 25.6622 -5.03106 2.20411 -7.75588 -15.1598 
43.7538 91.8466 -32.9344 60.7995 -38.3176 -21.0964 -70.1915 0 88.8779 106.731 71.9085 -26.4302 -7.86885 21.8735 5.91383 -172.161 21.4532 171.5 -159.893 60.2401 179.216 -0.977577 -18.4003 -35.159 -70.0021 39.634 -96.2944 4.68405 7.27013 -32.4664 0.420957 0.00057539 0.35866 -2.66364 7.85038 48.2158 -61.9366 -33.8678 91.2705 -4.29908 0.836888 19.8491 0.58676 0.000331127 0.0646653 -24.1492 -6.12155 96.0215 -10.4499 65.0953 -20.4472 -40.6221 -29.1913 -8.53986 -3.84543 -5.35257 36.9044 -39.9813 0.0931328 88.2199 166.738 71.9077 -156.49 8.10239 26.5252 -4.73708 2.10856 -7.99548 -14.2532 
45.3334 92.5077 -31.7096 60.4453 -38.6047 -20.9839 -70.1915 0 88.8779 106.318 71.7262 -25.7043 -7.95451 21.4646 6.05257 -171.758 21.0914 171.517 -160.124 59.8976 179.354 -0.882469 -18.2223 -34.5798 -71.8821 39.6507 -96.1999 6.42798 8.88387 -35.6826 0.420957 0.000575387 0.35866 -2.66476 7.75847 48.6687 -68.5636 -33.3192 85.8716 -4.4963 -5.98477 17.4341 0.58676 0.000331128 0.0646653 -26.0391 -6.17013 95.247 -9.83932 64.0108 -21.0776 -42.459 -29.8963 -9.22522 -3.61581 -5.50279 36.4972 -36.2488 0.490283 88.2733 167.485 68.5281 -159.591 6.47649 27.7249 -4.31059 1.93081 -7.69283 -12.1088 
46.9013 93.2492 -30.5462 60.0678 -39.0198 -20.9307 -70.1915 0 88.8779 106.065 71.5613 -25.0258 -8.04336 21.115 6.12219 -171.376 20.6861 171.651 -160.398 59.5276 179.553 -0.736525 -17.8372 -33.9017 -74.229 39.8508 -95.6538 8.38801 10.3286 -39.0669 0.420957 0.000575383 0.35866 -2.66458 7.66625 49.117 -75.5788 -31.9847 80.3891 -5.02239 -13.6328 15.4007 0.58676 0.000331129 0.0646653 -28.0894 -6.17348 94.5572 -9.20469 62.6109 -21.4511 -44.2907 -30.2592 -9.72061 -3.4478 -5.55636 35.9223 -32.5474 0.895985 88.4873 167.102 65.5259 -162.073 4.62479 28.7708 -3.78693 1.6967 -7.09128 -9.64009 
48.4812 94.0674 -29.3955 59.8573 -39.4249 -20.7607 -70.1915 0 88.8779 106.009 71.3665 -24.539 -8.05037 20.7604 6.21802 -171.067 20.2918 171.925 -160.657 59.1823 179.814 -0.586517 -17.3792 -33.2438 -76.4873 40.0005 -94.9881 10.3123 11.3215 -42.4629 0.420957 0.000575379 0.35866 -2.65863 7.57513 49.4948 -81.1732 -30.3063 75.8838 -5.63888 -20.422 13.7335 0.58676 0.000331129 0.0646653 -30.3468 -6.17739 93.8945 -8.65125 60.9402 -21.3774 -45.6055 -30.0549 -9.79107 -3.35813 -5.52363 35.3194 -29.1631 1.14496 88.5879 167.013 63.0019 -164.482 2.84105 29.171 -3.20963 1.48916 -6.46575 -7.75243 
